<svg xmlns="http://www.w3.org/2000/svg" xmlns:xlink="http://www.w3.org/1999/xlink" xml:space="preserve" viewBox="0 0 77 77"><defs><linearGradient id="a"><stop offset="0" stop-color="#274770"/><stop offset="1" stop-color="#4e79af"/></linearGradient><linearGradient xlink:href="#a" id="b" x1="-128.12" x2="44.67" y1="390.53" y2="359.45" gradientTransform="translate(224.88)" gradientUnits="userSpaceOnUse"/><clipPath id="c" clipPathUnits="userSpaceOnUse"><path fill="#fff" stroke-linecap="round" stroke-linejoin="round" stroke-width="1.3" d="M63.77 190.06h63.09v-9.65H63.77z"/></clipPath></defs><g transform="translate(-83 -351.7)"><rect width="77" height="77" x="83.01" y="351.7" fill="url(#b)" ry="16.51"/><text xml:space="preserve" x="113.78" y="379.13" stroke-linecap="round" stroke-linejoin="round" stroke-width="1.3" font-family="Bebas Neue" font-size="8.03" style="-inkscape-font-specification:&quot;Bebas Neue&quot;;text-align:center" text-anchor="middle" transform="translate(-9.36 -28.9) scale(1.077)"><tspan x="114.77" y="379.13" font-family="Raleway SemiBold" font-weight="400" style="-inkscape-font-specification:&quot;Raleway SemiBold, &quot;"> </tspan></text><g stroke="#274770" stroke-linecap="round" stroke-linejoin="round" stroke-width="1.61" clip-path="url(#c)" opacity=".4" transform="matrix(2.8036 0 -.9056 -1.2798 -6.82 642.1)"><path fill="#fff" stroke="none" d="m114.72 191.12-2.09-.91-1.61-.66-1.22-1.9-.03-1.34-1.6-.04-2.2-.47-.06-1.84 1.85-1.28 2.12-.45 4.03 2.01 1.74.84 3.18 5.2m-15.2 2.04-2.77-1.2.09-.74-.72-.3-1.58.67-1.93-1.15-.84-2.57c1.46.57 5.17-.33 5.87-.74l.72.14 1.56-1.53.36-.66.6 2.2.66.32 1.05 3.2 1.36 1.3.5 1.58" opacity="1"/><path fill="none" stroke="#fff" d="m112.85 183.96.5.48.56-.2 1.74.84 3.21 4.77m-23.49 0 .92-3.02 1.17.46 1.82-.57c1.46.56 1.77-.02 2.47-.43l.72.14 1.56-1.53.36-.66.6 2.2.66.32 1.05 3.2 1.36 1.3.62 1.19m.79-10.57 1.37.86 1.2 1.08.8.14m-8.44.28s.49-.01.72-.08c1.13-.35 2.53-1.61 2.99-1.9.24-.17.83.28.83.28l.53-.66"/></g><g stroke="#274770" stroke-linecap="round" stroke-linejoin="round" stroke-width="1.05" clip-path="url(#c)" transform="matrix(2.8036 0 0 2.969 -178.94 -166.11)"><path fill="#fff" stroke="none" d="m114.72 191.12-2.09-.91-1.61-.66-1.22-1.9-.03-1.34-1.6-.04-2.2-.47-.06-1.84 1.85-1.28 2.12-.45 4.03 2.01 1.74.84 3.18 5.2m-15.2 2.04-2.77-1.2.09-.74-.72-.3-1.58.67-2.76-1.07 1.62-2.57c1.46.57 3.54-.4 4.24-.82l.72.14 1.56-1.53.36-.66.6 2.2.66.32 1.05 3.2 1.36 1.3.5 1.58"/><path fill="none" stroke="#fff" d="m112.85 183.96.5.48.56-.2 1.74.84 3.21 4.77m-23.4.11 2-2.67 1.82-.57c1.46.56 1.77-.02 2.47-.43l.72.14 1.56-1.53.36-.66.6 2.2.66.32 1.05 3.2 1.36 1.3.62 1.19m.79-10.57 1.37.86 1.2 1.08.8.14m-8.44.28s.49-.01.72-.08c1.13-.35 2.53-1.61 2.99-1.9.24-.17.83.28.83.28l.53-.66"/></g><path fill="none" stroke="#fff" stroke-linecap="round" stroke-linejoin="round" stroke-width="3.04" d="M86.5 398.67h70"/><g stroke-width="36.99"><path fill="#da291c" d="M138.77 363.67h13.19v13.19h-13.19Z"/><path fill="#fff" d="M144.13 366.14h2.47v2.88h2.89v2.48h-2.89v2.88h-2.47v-2.88h-2.89v-2.48h2.89z"/></g></g></svg>